<svg xmlns="http://www.w3.org/2000/svg" viewBox="0 0 769.8 367.9"><path fill="#3C3E6C" d="M500.8 29c15.2 28.1 30.2 56.3 45.4 84.4.8 1.4 1.8 2.6 3.2 4.6 1.5-1.9 2.6-3.3 3.6-4.7 11.6-17.9 23.1-35.8 34.8-53.6 6.1-9.3 11.6-9 17.3.7 18.7 32.1 37.4 64.1 56.1 96.2 5.2 8.9 22.9 36.5 34.9 57.5 31.7 55.3 73.8 81.4 73.8 81.4-3-.6-6.2-.3-9.2-.9-25-4.9-49.9-10.6-75-14.7-24.5-3.9-49.4-4.4-74.2-3.3-35.3 1.5-70.2 6.5-104.5 15.1-27.8 7-54.9 16.3-80.9 28.4-22.7 10.6-44.2 23.1-64.2 38.2-4.3 3.2-8.2 6.8-12.8 9.6-5.6-10.7-11-21.4-16.3-32.2-15.6-31.7-31-63.4-46.6-95.1-8.5-17.3-17-34.7-25.5-52-.6-1.3-1.1-2.7-1.8-4.5 8.1-6.8 16.1-13.5 24.1-20.1 21.5-17.6 43-35.2 64.5-52.7C366.3 96 385.2 80.7 404 65.4l63.6-52.2C473 8.6 478.7 4.5 484 0c5.5 9.7 11.5 19.2 16.8 29zM606 103.2c-.2-.2-.4-.2-.6 0-1.8 1.8-2.6 5.1-3.2 7.2-4 13.9-7.8 27.9-11.7 41.8-3.9 13.9-7.7 27.9-11.9 41.7-.6 2-2.8 4.1-4.8 4.9-1 .4-3.6-1.9-4.6-3.6-3.5-5.7-6.6-11.6-9.9-17.3-18.7-33-37.3-66.1-56-99.1-3.2-5.6-6.3-11.3-9.7-16.9-2.6-4.2-4.3-4.1-6.7 0-.4.7-.8 1.5-1.1 2.2-11.3 24.9-22.5 49.7-33.7 74.6-14.7 32.6-29.3 65.3-44.1 97.9l-44.7 98.7c-3 6.7-6 13.5-9 20.3 1.6-.8 2.5-1.9 3.3-3.2 11.9-18.7 23.8-37.3 35.7-56 17-26.7 34-53.3 51.1-80 16.1-25.2 32.3-50.5 48.5-75.7 3.6-5.6 6.8-5.7 10.9-.6l30.3 37.8c13.7 17.1 27.5 34.2 41.3 51.3 3.1 3.9 5.1 3.7 7.3-.7.4-.9.8-1.8 1.2-2.8 8.3-19.6 16.5-39.3 24.8-58.9 2.9-6.9 6.5-7.3 11-1.2 19.3 25.6 37.8 51.9 59.9 75.4 15.3 16.3 32.4 30.1 51.6 41.4.9.5 6 2.6 6 2.6s-3.7-3.1-4.3-3.6c-6.4-6-13.8-11.3-19.1-18.2-11.8-15.2-23.2-30.8-33.8-46.9-23.3-35.5-45.9-71.4-68.8-107.1-1.5-1.9-3-3.9-5.2-6z"/><path fill="#FC7214" d="M.5 79.6c4-11.9 11-39.3 15.8-51.7 2.3-5.9 5.4-8.6 12.3-8.6 68.8.3 245.5.2 314.3.2h.1c4.9 0 8.1 4.3 8.2 9.2.1 14.9-2.7 39.5-2.1 53.5-20.3-14.7-97.3-10-118.4-11.1-6.3-.3-8.7 2.3-10.2 8.2-12.5 50.3-50.2 180.3-62.2 230.7-2.8 11.7-2.7 24.1-4.1 36.9H52.7c-.4-1.1-.9-1.8-.8-2.1 15.4-26.2 48.1-147.3 55.6-176 8.8-33.1 12.9-55 21.1-88.3.6-2.6.8-5.3 1.4-9-24.6 0-102.6-3.6-129.5 8.1-1.6-1.6 1.6 1.6 0 0z"/></svg>