<svg xmlns="http://www.w3.org/2000/svg" viewBox="0 0 1697 547.4"><path fill="#3C3E6C" d="M832.2 29c15.2 28.1 30.2 56.3 45.4 84.4.8 1.4 1.8 2.6 3.2 4.6 1.5-1.9 2.6-3.3 3.6-4.7 11.6-17.9 23.1-35.8 34.8-53.6 6.1-9.3 11.6-9 17.3.7 18.7 32.1 37.4 64.1 56.1 96.2 5.2 8.9 10.6 17.6 16.5 26.6 3.9-37.5 21.6-65.5 55.7-81.9 20.4-9.8 41.9-11.5 63.8-5.4 47.7 13.3 72 56.7 69.2 96.7-2.2 30.5-16.2 54.8-41.4 71.8-26.8 18.1-56.5 20.5-87.9 9.6l32.9 21.6c-3-.6-6.2-.3-9.2-.9-25-4.9-49.9-10.6-75-14.7-24.5-3.9-49.4-4.4-74.2-3.3-35.3 1.5-70.2 6.5-104.5 15.1-27.8 7-54.9 16.3-80.9 28.4-22.7 10.6-44.2 23.1-64.2 38.2-4.3 3.2-8.2 6.8-12.8 9.6-5.6-10.7-11-21.4-16.3-32.2-15.6-31.7-31-63.4-46.6-95.1-8.5-17.3-17-34.7-25.5-52-.6-1.3-1.1-2.7-1.8-4.5 8.1-6.8 16.1-13.5 24.1-20.1 21.5-17.6 43-35.2 64.5-52.7 18.8-15.3 37.7-30.6 56.5-45.9C756.6 47.8 777.8 30.4 799 13c5.4-4.4 11.1-8.5 16.5-13 5.5 9.7 11.4 19.2 16.7 29zm104.9 73.9c-1.6 3.2-2.9 5.3-3.5 7.5-4 13.9-7.8 27.9-11.7 41.8-3.9 13.9-7.7 27.9-11.9 41.7-.6 2-2.8 4.1-4.8 4.9-1 .4-3.6-1.9-4.6-3.6-3.5-5.7-6.6-11.6-9.9-17.3-18.7-33-37.3-66.1-56-99.1-3.2-5.6-6.3-11.3-9.7-16.9-2.6-4.2-4.3-4.1-6.7 0-.4.7-.8 1.5-1.1 2.2-11.3 24.9-22.5 49.7-33.7 74.6-14.7 32.6-29.3 65.3-44.1 97.9l-44.7 98.7c-3 6.7-6 13.5-9 20.3 1.6-.8 2.5-1.9 3.3-3.2 11.9-18.7 23.8-37.3 35.7-56 17-26.7 34-53.3 51.1-80 16.1-25.2 32.3-50.5 48.5-75.7 3.6-5.6 6.8-5.7 10.9-.6l30.3 37.8c13.7 17.1 27.5 34.2 41.3 51.3 3.1 3.9 5.1 3.7 7.3-.7.4-.9.8-1.8 1.2-2.8 8.3-19.6 16.5-39.3 24.8-58.9 2.9-6.9 6.5-7.3 11-1.2 19.3 25.6 37.8 51.9 59.9 75.4 15.3 16.3 32.4 30.1 51.6 41.4.9.5 2 .7 3 1.1-.2-1.1-.8-1.7-1.4-2.2-6.4-6-13.8-11.3-19.1-18.2-11.8-15.2-23.2-30.8-33.8-46.9-23.3-35.5-45.9-71.4-68.8-107.1-1.4-1.8-3-3.4-5.4-6.2zm170.3 138.5c32.3 1 62-24.9 62.2-61.3.2-35.2-27.8-61.3-61.3-61.9-33.5-.5-62.3 28.3-62.3 61.5-.2 34.4 29.5 62.8 61.4 61.7z"/><path fill="#FC7214" d="M0 146.4c3.1-7.3 6.2-14.6 9.1-22 1.4-3.5 3.2-5.1 7.3-5.1 41 .2 81.9.1 122.9.1 1.6 0 3.2.2 5.4.4-1 9.9-1.9 19.3-3 29.9-12.1-8.8-25.2-5.6-37.8-6.3-3.8-.2-5.2 1.4-6.1 4.9-7.3 30-15 59.8-22.2 89.8-1.7 7-1.6 14.3-2.4 22H12.8c-.2-.7-.6-1.1-.4-1.3 9.2-15.6 11.6-33.4 16.1-50.5 5.2-19.7 9.9-39.6 14.8-59.3.4-1.6.5-3.2.8-5.4-15.4 0-30.4-2.3-44.2 5.8.1-1 .1-2 .1-3z"/><path fill="#3C3E6C" d="M1697 131.4c-.9 5.5-1.7 11-2.5 16.4-.6.2-1 .5-1.2.4-11.6-6.6-24.2-4.6-36.6-4.8-3.1-.1-4.9 1.1-5.7 4.3-7.8 31.8-15.8 63.6-23.5 95.4-1 4-.4 8.3-.5 12.4 0 3-1.2 4.8-4.4 4.8-18 0-36 0-54-.1-.9 0-1.8-.6-2.5-.8-.2-.6-.5-1-.4-1.2 9.9-18.1 12.5-38.5 17.8-58 4.5-16.9 8.5-33.9 12.7-50.8.4-1.6.5-3.2.9-5.7-14.9-.3-29.3-2.2-44.2 5.7.9-3.1 1.2-4.8 1.8-6.3 2.3-5.9 5-11.6 7-17.6 1.5-4.5 4.1-6.1 8.8-6.1 42.1.1 84.3.1 126.4.1.1 3.9.1 7.9.1 11.9zM469 547.4c.6-1.7 1-3.4 1.8-5 1.4-2.9 3.7-5.5 4.4-8.5 3.4-14.5 6.5-29.2 9.6-43.8.3-1.6.4-3.3.6-5.1-1.2-.9-2.6-1.5-3.5-2.6-1.6-2 .3-5.6 3.2-5.8 5.1-.2 10.3 0 15.4.1 2.2 0 4.4 0 6.6-.1 3.8-.2 7.7-1.4 11.3-.6 10.6 2.2 14.2 9 14 19.5-.2 15.9-9.4 28.1-24.8 31.4-3.5.8-7.3.7-10.9.5-4.2-.2-6.1 1.7-6.7 5.6-.5 3.7-2.3 7.4 1.5 10.6.7.6.3 2.5.3 3.9-7.5-.1-15.1-.1-22.8-.1zm30.7-29.1c.3-.1 1.3-.2 2.2-.4 9-2.4 16.7-15.3 14.5-24.5-1-4.4-3.3-7-8.2-7-5 .1-8.1 2-9.2 6.5-1.6 6.8-2.9 13.6-4.5 20.4-.9 4 .9 5.2 5.2 5z"/><path fill="#FC7214" d="M126 259.9c1.5-2.7 2.9-4.7 3.7-7 3.4-10.4 6.9-20.8 9.6-31.3 6.9-26.5 13.6-53 19.8-79.7 1.6-6.9 1.5-14.3 2.2-22.2 1.1-.1 3-.3 5-.3 36.7 0 73.3-.1 110 .1 5.6 0 11.2 1.2 16.6 2.5 7.7 2 12.6 7.8 11.8 15.7-1 10-3.1 19.9-5.5 29.7-1.7 7-3.8 14.1-6.8 20.7-2.9 6.5-8.9 9.5-16 10.3-1.8.2-3.5.8-6.1 1.5 4.7 20 9.3 39.7 14 59.9h-59.2c-3.4-19.7-6.9-39.7-10.4-60h-15.6c-3.7 19.8-12.5 38.6-11 60.1H126zm80.5-84.7c10.8 0 21.3.2 31.7-.1 3.5-.1 6-2.5 6.8-6.3 1.4-6.5 2.8-12.9 4.6-19.3 1-3.9-1-5.7-4-5.8-10.6-.3-21.2-.1-32-.1-2.5 10-4.9 19.4-7.2 28.9-.3.5 0 1.2.1 2.7z"/><path fill="#3C3E6C" d="M1517.2 119.9h31.4c.2.8.4 1.2.3 1.4-10 12.2-10.9 27.6-14.7 42-8 30.2-15.4 60.6-22.8 91-1 4.2-2.8 6.2-7.4 6.1-15.7-.2-31.3-.2-47 0-4 0-6-1.4-7-5.3-7.3-29.9-14.7-59.8-22.1-89.7-1.5-5.9-3-11.8-5.6-17.9-.9 3.2-1.8 6.4-2.6 9.7-7.3 30.2-14.7 60.5-21.8 90.7-.8 3.4-.1 7.1-.1 12-9.9.8-20.5.3-31.2.3-.2-1.1-.5-1.8-.3-2.1 8.3-12.5 10.8-27.1 14.4-41.3 6.4-25.5 12.8-51 18.8-76.6 1.5-6.3 1.6-12.9 2.5-20.4.6-.1 2.3-.6 4-.6 21.2-.1 42.3.1 63.5-.1 4.9 0 6.6 2.1 7.6 6.5 6.2 25.9 12.7 51.7 19.1 77.5.3 1.2.9 2.4 1.7 4.3.8-1.6 1.5-2.6 1.7-3.6 5.6-22.6 11.3-45.2 16.5-67.9 1.2-4.6.8-9.9 1.1-16z"/><path fill="#FC7214" d="M509.9 198.2c-16-25.6-24.6-54.6-44.2-78.2h78.1c-2.7 15.2 7.3 26.1 12.1 39.8 14.6-13 31.1-22.2 41.5-38.2.6-1 2-2 3.1-2 13.6-.1 27.2-.1 41.2 1-4.2 2.9-8.6 5.7-12.7 8.9-15.5 12.2-31 24.5-46.4 36.8-4.4 3.5-8.6 7.3-13.1 10.7-2.4 1.7-2.8 3.3-1.5 5.8 11 22.2 21.8 44.4 33 66.6 1.8 3.6 4.8 6.6 7.8 10.6h-76.7c4.2-16.6-7.7-27.5-13-41.6-10.4 8.5-20.3 16.1-29.6 24.3-5.4 4.8-9.8 10.7-14.7 16-.7.8-1.8 1.7-2.8 1.7-12.9.1-25.9.1-39.5.1 26.1-21.1 51.4-41.4 77.4-62.3zM457.3 119.9c-.8 9.2-1.5 17.8-2.3 27.4-22.2-6.4-44.1-2.8-66.5-4-2.6 10.6-5.2 20.8-8 32.2 21.3-.5 41.6 2 62.9-4-2.8 11.3-5.3 21.3-7.9 31.8-20.2-6.2-40.5-3-61-3.8-3.1 12.4-6 24.3-9.2 37 23.9-.6 47 2.2 70.5-4-.4 1.9-.4 3.1-.9 4.2-2.8 6.6-5.7 13.1-8.4 19.7-1.1 2.7-2.6 4.2-5.9 4.2-38.5-.1-77-.1-115.5-.1-1.1 0-2.2-.3-3.5-.5 2.5-6 5.5-11.6 7.2-17.6 6-22.1 11.5-44.3 17.1-66.5 3.3-13 6.6-26 9.4-39.2 1.1-5.3.8-10.8 1.1-16.7 40.1-.1 79.8-.1 120.9-.1z"/><path fill="#3C3E6C" d="M1351.1 120h30.5c.2.7.4 1.1.3 1.3-10 14.1-11.3 31.1-15.7 47-5.4 19.6-9.8 39.4-15.4 58.9-2.6 9.3-7 18.1-15 24.3-6.5 5-14.2 7.6-22.3 7.9-17.8.7-35.6 1-53.4 1.1-11.5 0-23-.2-34.4-1-17.2-1.3-26.2-12-22.9-29.3 5.4-28.6 13.1-56.7 19.6-85.1 1.5-6.6 2-13.4 2.7-20.2.3-3 .8-5.2 4.5-5.2 18 0 36 0 54 .1.8 0 1.5.4 3.1.8-1.9 3.9-4.1 7.4-5.3 11.3-3.7 12.6-7.2 25.3-10.4 38-4.5 17.6-8.9 35.2-13.2 52.8-2.4 9.8.7 13.8 10.8 14 13.8.2 27.7.6 41.5-.1 12.3-.6 15.3-1.2 18.7-14.8 6.7-27 13.7-53.9 20.1-80.9 1.3-6.7 1.3-13.3 2.2-20.9zM898.9 386c2.7-7.3 5.4-14.6 8.1-21.8 6.3-17.3 12.7-34.7 19-52.1 1.2-3.3 3-5 6.6-4.7 2.3.2 4.7-.1 7 .1 7.1.7 10.9 5.7 8.7 12.6-3 9.3-6.6 18.5-10.1 27.6-8.6 22.2-17.3 44.3-25.7 66.6-1.4 3.7-3.3 5.5-7.3 5.1-7.7-.8-15.9-.1-21.5-7.1-1.7-2.2-3.3-4.6-4.3-7.2-9.5-25.1-18.9-50.2-28.1-75.3-1.4-3.7-2.5-7.6-2.9-11.6-.6-6.4 3.2-10.4 9.6-10.8 11.2-.6 11.4-.4 15.2 10.3 7.6 21.5 15.4 42.9 23.1 64.4.4 1.2 1 2.4 1.5 3.6.2.2.6.2 1.1.3zM966 387.3c.5 11.6 6.9 18 17.7 18 5.1 0 10.3-.7 15.4-.7 3.6 0 7.6-.1 10.7 1.3 2.2 1 3.9 4.3 4.6 6.9.3 1-2.5 3.7-4.3 4.2-13.5 4-27.3 6.3-41.2 2.2-14.2-4.2-22.3-14.1-25-28.3-1.9-9.9-1.9-19.9 1.6-29.6 3.8-10.7 11.1-18 21.9-21.6 10.9-3.6 21.8-4.1 32.8-.4 16.7 5.7 23.6 22.1 15.7 37.3-3.9 7.4-10.8 10.7-18.3 11.5-8.5.8-17.2-.1-25.7-.3-1.8 0-3.6-.3-5.9-.5zm-.2-15.6c8 3 16.2 4 24.6 1.6 5-1.4 7.6-5.5 7.5-10.5-.1-4.6-3.3-8.6-8.1-10.2-12.3-3.9-23.8 5-24 19.1zM1364.6 387.6c.5 11.2 7 17.7 17.3 17.8 5.3 0 10.6-.7 15.9-.7 3.6 0 7.5.1 10.7 1.5 2 .9 3.6 4 4.2 6.5.9 3.1-2 4.2-4.5 4.9-12.8 3.4-25.6 5.5-38.9 2.3-13.1-3.2-21.7-11.4-25.7-24-3.5-11-3.5-22.3.2-33.3 4.2-12.2 12.5-20.2 25.1-23.4 13-3.3 25.7-3.5 37.4 4.2 8.1 5.4 12.3 13 11.1 22.9-1.4 11.4-7.5 18.8-19 21.7-9.4 2.3-18.8 1.8-28.2.3-1.7-.6-3.6-.6-5.6-.7zm14.2-12.8c3.4-.4 6.1-.4 8.7-1.1 6.2-1.6 9.7-5.9 9.5-11.2-.2-5-3.8-8.8-9.9-10.3-10.9-2.6-21.9 5.4-22.5 16.6-.1 1.2 1.6 3.3 2.8 3.7 3.9 1.1 8 1.6 11.4 2.3zM1247.1 414c-4.9 2.2-9.2 4.9-13.9 6.1-17.3 4.5-34.5-5.1-40.9-22.7-1.8-4.9-3-10.3-3.1-15.5-.5-12.5 0-25-.2-37.5-.1-4.6 1.8-6.1 6.2-6.1 9.1.1 15.3 3.1 15 14.6-.3 11.5.3 23 1 34.4.6 9.8 5.4 15.4 13.7 17.2 7 1.5 14.2-1.3 17.2-7.8 2-4.2 3.5-9.1 3.7-13.7.5-12.6.2-25.3.2-38 0-6.1.6-6.6 6.5-6.7 10.7 0 14.9 3.1 15.2 14 .6 20.8.2 41.7.2 62.5 0 3.2-1.7 4.3-4.7 4.5-6.2.5-12-.1-16.1-5.3zM1056.5 343.8c5.6-2.3 10.5-5.1 15.8-6.1 17.4-3.4 33.4 5.9 39.4 22.8 1.8 5.1 2.9 10.7 3.1 16 .5 12.1.2 24.3.1 36.5 0 5.9-.6 6.3-6.2 6.5-11.1.2-14.6-3.3-14.8-14.4-.2-11.3-.3-22.6-1.1-33.9-.3-4.1-1.7-8.7-4.1-12.1-6.2-8.8-21.7-7.8-26.7 1.8-2.2 4.3-3.7 9.4-3.9 14.2-.5 12.5-.2 25-.2 37.5 0 6.5-.5 6.9-6.8 6.9-10.6.1-14.6-2.9-14.9-14.1-.6-20.8-.2-41.6-.2-62.4 0-3.2 1.7-4.4 4.7-4.4 6-.2 11.7.1 15.8 5.2zM1461.5 337.4c11.3-.4 22.2 1.7 32.6 6.1 2.6 1.1 5.3 2.1 4.1 6.1-1.1 3.7-2.3 6.8-6.7 6.6-3.1-.1-6.3-.6-9.3-1.3-8.7-2.1-17.4-4.3-26.5-2.5-1 .2-2 .4-2.9.6-2.9.8-6 2.1-5.3 5.5.4 2.1 2.6 4.6 4.7 5.5 5.2 2.2 10.8 3.4 16.1 5.4 7 2.6 14.3 4.7 20.6 8.6 13.8 8.5 13.8 26.8.4 36.2-8.9 6.3-19.2 7.8-29.6 6.8-8.8-.9-17.5-3.5-26.2-5.9-5.1-1.4-6.2-3.8-5-8.1 1.1-3.9 4.7-6.1 8.9-5.4 9 1.5 17.9 3.4 26.9 4.5 2.9.4 6.5-.5 9.1-2 2.4-1.4 5.4-4.5 5.4-6.8 0-2.2-3.1-5.5-5.5-6.5-7.4-3-15.2-4.9-22.7-7.6-4.4-1.5-8.7-3.4-12.7-5.7-14.2-8.1-14.1-27.3 0-35.6 6-3.4 11.7-4.5 23.6-4.5zM933.3 463.1c-.9-1.9-3-4.6-2.4-5.4 1.1-1.6 3.7-2.9 5.8-3.1 4.4-.5 8.9-.1 14.1-.1-.2 2.6-.1 4.5-.5 6.3-3.8 16.9-7.7 33.7-11.4 50.6-.4 1.9-.3 4-.5 6.3 6.1-.2 10.5-1.6 13.3-6.5.8-1.3 3.1-3.2 3.9-2.8 1.5.6 2.8 2.5 3.4 4.2 1.3 3.9 4.3 5.3 7.7 5.1 3.1-.2 6.5-1.1 9-2.9 2.3-1.6 1.3-4.3-1.3-5.5-2.9-1.3-5.8-2.4-8.8-3.5-6.4-2.3-12.3-5.6-12.2-13.3 0-8 5.2-12.7 12.3-15.2 8.6-3.1 17-2.2 25 2.2 1.5.8 2.7 2.3 4.3 3.8-2 2.7-3.7 5.2-5.6 7.4-2.7 3.3-5.7 3.2-7.1-.7-1.5-4.4-4.7-5-8.3-4.3-1.6.3-3.1 1.9-4.6 3 1.1 1.3 1.9 3.1 3.3 3.8 3.6 1.8 7.3 3.1 11.1 4.5 12.6 4.6 9.7 20.4 2 25.5-10.1 6.7-21 6.9-31.9 2.4-3.5-1.4-6-1.6-9.7 0-4.2 1.8-9.3 2.4-13.9 2.2-5.6-.3-8.4-5.9-7.1-12.7 1-5.2 2.3-10.4 3.4-15.6 2.7-11.8 5.3-23.6 8-35.4-.3-.2-.8-.2-1.3-.3zM1134 360.1v-46.5c0-5.6.8-6.3 6.4-6.2 10.5.1 14.5 4.1 14.6 14.6 0 3.5.2 7 0 10.5-.2 4.2 1.4 6.2 5.8 6 3.8-.2 7.7-.1 11.5 0 4.2.2 5.2 1.6 4.2 5.8-1.4 6-5 9-12 9-10.3 0-9.4.7-9.4 9.9v50c0 5.7-.6 6.2-6.4 6.3-10.5.1-14.6-3.8-14.6-14.3-.1-15.1-.1-30.1-.1-45.1zM1308.7 344.8c9.1-8.8 19.3-9.9 30.1-6.4 2.2.7 5.6 2.9 5.6 4.5 0 2.5-1.8 5.6-3.7 7.5-4.1 3.9-9.7 3.7-14.7 2.8-7.4-1.4-13.8 4.8-14.8 11-.8 5.1-1.1 10.2-1.2 15.4-.2 11.1 0 22.3-.1 33.4 0 5.9-.6 6.4-6.2 6.5-11.4.2-15.5-3.3-15.7-14.9-.2-20.1 0-40.3-.1-60.4 0-4.4 1.8-6 6-5.7 5.6.2 11.2.1 14.8 6.3zM1279 519.3c-2.4 5.9-7.4 7.6-13.2 8.1-5.7.5-9.7-1.9-11.8-7.2-2.1-5.3-3.9-10.8-6-16.6-4.4 3.8-5.9 8.9-7.5 13.9-2.9 9.7-4.5 10.6-15.4 8 .2-1.8.1-3.7.5-5.6 3.5-17.3 7-34.5 10.6-51.8.6-2.9 1.2-5.3-2.2-7.2-2.1-1.1-1.1-5.7 1.4-5.9 5.8-.5 11.7-.2 18.4-.2-2.7 12.9-5.3 24.8-8 37.8 11-8.9 19.7-20.4 35.9-15.8-.9 4.8-1.5 8.7-2.6 12.5-.3 1.1-1.8 2.4-3 2.6-.8.2-2.6-.9-2.9-1.9-.9-2.6-2.3-4.3-5.1-3.1-3.1 1.3-7.6 2.4-6.8 6.7 1.3 7 3.5 13.8 5.9 20.5.5 1.4 3.7 3 5.1 2.6 3.3-.9 5 .5 6.7 2.6zM807.6 518.1c2.7-.7 4.4-1.2 6.6-1.8 1 1.4 2.2 2.9 3.3 4.3-6 8.2-15.6 9-23.9 3.3-7.1 1.3-13.2 2.9-19.3 3.4-6.5.5-11.8-3.2-13.6-8.1-2-5.6 0-13.4 4.6-17.4 6.3-5.4 14.1-7.3 22.1-8.3 2.1-.3 4.3-.4 6.4-1.1 1.1-.3 1.9-1.5 2.8-2.2-1.1-1.1-2-3-3.3-3.2-5.4-.9-11-1.5-15.7 2.4-2.4 2-4.8 2.8-7.6 1-.3-9.7.8-11.8 9.7-13.1 7.1-1.1 14.6-1.5 21.7-.5 9.3 1.3 12.1 6.5 10.4 15.8-1.2 6.5-2.8 13-4 19.5-.5 1.7-.2 3.4-.2 6zm-14.2-15.6c-6 .8-11.9 1-15.8 6.2-2.5 3.3-1.7 6.7 1.6 7.5 7.5 1.9 15.3-5.2 14.2-13.7zM473.7 516.9c1 1.4 1.9 2.8 2.8 4-3 5.7-11.8 8.4-19 6.1-5.1-1.7-7.2-6.5-5.7-13.7 1.6-7.6 3.6-15.2 5.3-22.8.3-1.3.7-2.6.6-3.9-.1-.9-1-2.3-1.7-2.5-.8-.2-2.1.7-2.6 1.6-3.2 5-3.2 5.1-8.4 1.7-2.9-1.8-6.6-1.1-8.4 2.6-2 4-3.2 8.3-4.4 12.6-1.8 6.6-3.2 13.2-5 19.8-1 3.7-11.6 6-13.9 2.9-.8-1-.5-3.1-.2-4.6 2.4-10.5 4.8-21 7.3-31.6.6-2.4 1.1-4.5-1.8-5.9-.8-.4-1.5-2.4-1.2-3.2.6-1.3 2-3.2 3.2-3.2 5.1-.1 10.2.4 15.3.6 1.2.1 2.4 0 3.7-.1 5.2-.4 10.4-1.1 15.6-1.3 4.6-.1 9.3.3 13.9.4 5.7.2 6.2.7 4.9 6.1-2.3 9.4-4.7 18.7-6.9 28.1-1.9 7.4-1.1 8.2 6.6 6.3zM730.9 470.7c-.8-5.7-5-5.3-9.1-5.3-4.2 0-4.4 3.1-5.1 6.1-2.9 13.3-6.1 26.6-8.8 39.9-.6 2.8.3 6 1.2 8.8 1.1 3.3.2 5.8-3.4 6-6 .3-12 .2-18 0-3.4-.1-4.8-3-2.3-4.9 6.9-5.2 6.4-13.2 8.3-20.2 2.6-9.6 4.6-19.4 6.8-29.1.4-1.7.4-3.6.6-5.2-5.9-2.5-9.8-1.6-13.7 2.2-1.4 1.4-3.9 1.8-5.9 2.7-.5-.5-.9-1-1.4-1.4 1-4.5 1.6-9 3-13.3.4-1.2 2.8-2.4 4.3-2.4 16-.2 32-.1 47.9-.1 3.5 0 4.9 1.6 4 5.1-.6 2.4-1 4.9-1.6 7.3-.6 3.5-2.4 5.2-6.8 3.8z"/><path fill="#3C3E6C" d="M390.7 465.9c-5.4-.6-10.2-1.4-13.9 3.6-.8 1.1-3.4 1.8-4.7 1.3-.9-.4-1.7-3-1.5-4.4 2.6-14.7 2.3-11.7 13.9-11.9 13.1-.2 26.3-.1 39.4 0 5.7 0 6.1.6 4.9 6.1-.6 2.6-1 5.3-1.9 7.7-.4 1.2-1.9 2.7-2.9 2.7-1.3 0-3.4-.9-3.9-2-2-4.7-6-3.4-9.4-3.5-3.8-.1-3.9 3.1-4.5 5.5-3.2 14.3-6.4 28.5-9.4 42.8-.4 1.8.4 4.1 1.4 5.7 1.8 3.1.9 6.5-2.6 6.6-6.9.3-13.9.1-21 .1-1.1-3.3-.8-5.3 2.1-7.1 1.6-1 3.1-3.1 3.6-5 3.6-15 7-30.1 10.4-45.2.3-.7.1-1.6 0-3zM1154.5 455.5c-1 4.7-1.8 9.4-3.2 13.9-.9 2.7-4.2 2.3-6.4-.1-1.3-1.5-3.1-3.1-4.9-3.6-6-1.4-7.7-.1-9.1 5.9-3.1 13.8-6.3 27.5-9.2 41.4-.4 2.1.4 4.7 1.2 6.8.9 2.6 1.8 5.8-1.4 6.1-7.5.6-15 .2-23.6.2 1.1-2.8 1.3-5.2 2.5-5.8 4.3-2.1 4.8-6.1 5.6-10 2.9-12.3 5.8-24.6 8.4-37 .5-2.4 3.1-5.5-.6-7.5-2.9-1.6-9.5-.1-11.5 2.4-2.5 3.1-2.5 3.1-7.8 2.5 1.1-5 2.1-9.9 3.5-14.6.2-.8 2.2-1.5 3.4-1.5 16.8-.1 33.6 0 50.5 0 .5 0 1.1.4 2.6.9zM1199 527.3c-8 .4-15.1-.3-20.6-5.8-6.5-6.4-7.6-19.1-2-28.3 7.3-12.1 18.3-18.1 32.4-17.6 5.4.2 10.8 2 13.2 7.4 2.1 4.6 1.9 9.8-1.5 13.6-2.6 2.8-6.1 5.2-9.7 6.5-5.1 1.8-10.7 2.1-16 3.4-1.9.5-3.7 1.9-5.5 2.8 1.2 2.2 1.9 5.1 3.8 6.4 4.8 3.3 13.6 2 18.2-2 1.1-1 1.9-2.6 3.2-3.1 1.5-.6 3.5-.8 5.1-.4.6.1.9 2.6.8 3.9-1.4 10.3-3.6 12.3-14.9 13.2-2.5.2-4.9 0-6.5 0zm-7.2-30.5c6.3 1.4 11.1-.4 15-4.8.9-1.1 1.7-3.2 1.2-4.2-.6-1.1-2.6-2-4-2.1-5.4-.5-10.6 4.2-12.2 11.1zM885.6 507c1 8.3 3.6 10.4 11.4 10.4 5.1 0 9.2-1.9 12.9-5.5 1.6-1.5 4.2-2 6.6-3.1 1.7 10.9-1.2 15.8-10.1 17.6-8.4 1.6-16.8 2.1-25.1-.9-6.9-2.5-10.1-7.7-11.2-14.7-2.7-18.3 12-31.3 24.8-34.3 3.4-.8 6.9-1.1 10.4-1.1 7.5.2 13.1 4.3 14.4 10.1 1.5 6.5-1.6 13.3-8.8 16.1-6.1 2.4-12.8 3.2-19.3 4.7-1.8.5-3.8.5-6 .7zm2.7-10.2c6.3 1.7 11.1-.6 15.2-4.6.9-.9 1.5-3.3 1-4.5-.5-1.1-2.5-2-3.9-2.1-5.3-.4-10.6 4.5-12.3 11.2zM843.9 486.7c4-4.7 7.1-8.3 10.3-11.9 1.8-2.1 3.7-1.6 5.7 0 4.2 3.6 6.6 8.2 7.6 13.6 2.7 14.3-5.6 34.4-23.1 38.1-5.1 1.1-10.6 1-15.8.3-6.5-.9-10.6-8-9.2-14.9 1.5-7.3 3.2-14.6 4.9-21.9.6-2.7 1.2-5.1-1.7-7.1-.8-.6-1.3-2.8-.9-3.9s2.1-2.4 3.3-2.4c4.5-.3 9-.3 13.5-.1 3.4.1 3.4 2.3 2.7 5-2.2 9.2-4.3 18.5-6.3 27.7-1.2 5.4.5 7.4 6.1 7.1 10.2-.6 18.7-15.6 13.7-24.7-.7-1.2-2.7-1.8-4.2-2.5-1.9-.8-3.9-1.4-6.6-2.4zM541.2 506.7c1.5 2.5 3 4 3.4 5.8.9 4.7 4.6 4.8 8 5.2 3.7.4 7.5 0 9.7-3.6 1.6-2.7-.5-4.3-2.8-5.3-3.9-1.5-7.8-2.9-11.7-4.4-11.9-4.6-10.6-18.1-2.7-24.2 8.4-6.5 23.8-6.3 32.5-.1 2.7 1.9 3.2 3.6 1.1 6.1-.9 1-1.6 2.1-2.4 3.2-3.9 5.1-5.4 5-8.6-.7-1.8-3.1-8.3-4.5-11.1-2.2-2.2 1.8-1.9 4 .4 5.2 2.8 1.5 5.8 2.4 8.8 3.5 5.8 2.2 11.3 4.6 12 11.8.8 7.8-2.5 14-9.4 17.2-10.2 4.7-20.9 5.5-31-.6-6-3.6-6-4.9-1.8-10.4 1.5-2 3.2-3.8 5.6-6.5zM1279 519.4c2.5-4 4.9-8 7.4-11.9.6 0 1.2-.1 1.8-.1 1 1.5 2.7 3 2.9 4.7.8 5 4.8 5.7 8.2 5.6 3.3-.1 9.3-.8 9.8-3.4.6-2.6-1.5-4.4-3-5.3-3-1.7-6.5-2.4-9.8-3.7-7.6-2.9-10.4-6.5-10.4-12.9 0-6.8 3.5-11.7 10.2-14.5 11-4.5 23.7-2.6 31.1 5.2-1.8 2.5-3.5 5.3-5.5 7.8-2.8 3.4-5.2 3-6.8-1.3-1.3-3.6-4.1-4-7.2-4-3 0-5.7.4-6.3 4.9 1.9 1 3.8 2.1 5.9 3 2.3 1 4.8 1.5 7 2.5 5.4 2.3 10.1 5.4 10.4 12.1.4 7.2-2.9 12.5-9 16-11.3 6.2-25.6 4.4-36.7-4.7z"/><path fill="#3C3E6C" d="M1136.8 525.7c.6-3.1.9-6 1.6-8.9 2-8.7 4.1-17.5 6.3-26.1 1-3.7 1.3-6.9-3-8.4-.4-4.5 1.8-6 5.6-5.8 4.8.3 9.5.9 14.3 1.1 1.6.1 3.2-.9 4.8-1 4.1-.5 8.3-.8 13.6-1.2-1.2 5.2-1.7 8.9-2.9 12.4-1 3.2-3.4 3.3-5.9 1.3-4.7-3.8-9-3.1-11.1 2.8-2.5 7-4.1 14.3-6 21.5-.2.8-.3 1.6-.5 2.4-2.8 11.5-3.7 12.1-16.8 9.9zM765.4 476.5c-.9 4-1.4 8.1-2.9 11.8-1.1 2.8-3.5 2.3-5.7.5-4.4-3.7-8.6-3.2-10.5 2.3-3.1 8.9-5.4 18.1-7.8 27.2-2.2 8.2-2 8.3-10.6 8-1.6 0-3.2-.3-5.7-.6 3.2-13.9 6.3-27.2 9.3-40.6-1-.8-1.8-1.2-2.2-1.8-.7-1.1-2-2.8-1.6-3.5.7-1.4 2.4-3.2 3.7-3.2 5.2.1 10.3.9 15.4 1.3 1.2.1 2.5-.6 3.8-.8 4.6-.8 9.2-1.5 13.8-2.3.3.7.7 1.2 1 1.7z"/><path fill="#FC7214" d="M629.1 519.4c-9.3 1.1-17.1-7.1-17.1-16.5 0-9.5 7.2-16.4 16.9-16.4 10 0 17 6.8 17 16.7.2 9.2-7.1 16.2-16.8 16.2zM1060 503.2c0 9.7-6.8 16.3-16.8 16.2-10.3 0-16.2-6.1-16.2-16.5 0-9.6 6.8-16.5 16.1-16.4 10.2-.1 16.9 6.6 16.9 16.7z"/><path fill="#3C3E6C" d="M468.4 473.4c-4.9.1-8.3-3.2-8.3-7.9 0-5.7 4.8-10.8 10.2-11 4.9-.1 8.5 3.1 8.6 7.7.1 5.8-4.8 11.1-10.5 11.2z"/><g fill="#3C3E6C"><path d="M1532.1 419.6v-70h14c5.3 0 8.8.4 10.4 1.1 2.5 1 4.5 3.3 6.2 6.8 1.7 3.5 2.5 8.1 2.5 13.6 0 4.3-.5 7.9-1.4 10.8-1 2.9-2.2 5.2-3.7 6.9-1.5 1.7-3 2.8-4.5 3.3-2.1.7-5.1 1-9 1h-5.7v26.4h-8.8zm8.7-58.1v19.9h4.8c3.4 0 5.7-.4 6.9-1.1 1.2-.7 2.1-1.9 2.7-3.4.7-1.6 1-3.4 1-5.4 0-2.5-.5-4.6-1.4-6.3-.9-1.7-2.1-2.7-3.5-3.1-1-.3-3.1-.5-6.3-.5h-4.2zM1591 419.6v-69.4h8.7v61h21.7v8.4H1591zM1641.7 373.1v7.5h-5.4v39h-8.3v-39h-6v-7.5h6v-12.8h8.3v12.8h5.4zM1676.3 419.6h-7.7v-7.4c-1.3 2.9-2.8 5.1-4.5 6.5s-3.5 2.1-5.3 2.1c-3.6 0-6.7-2.3-9.2-7-2.6-4.7-3.8-11.2-3.8-19.6 0-8.6 1.2-15.1 3.7-19.6 2.5-4.5 5.6-6.7 9.5-6.7 3.5 0 6.5 2.4 9.1 7.1v-28.3h8.3v72.9zm-22-26.4c0 5.4.5 9.3 1.4 11.7 1.3 3.5 3.2 5.3 5.6 5.3 1.9 0 3.5-1.3 4.9-3.9 1.3-2.6 2-6.5 2-11.8 0-5.8-.6-10-1.9-12.6-1.3-2.6-3-3.8-5-3.8s-3.6 1.3-4.9 3.8c-1.5 2.5-2.1 6.3-2.1 11.3z"/><circle cx="1563.1" cy="415.5" r="6"/><circle cx="1690.5" cy="415.5" r="6"/></g></svg>